<svg xmlns="http://www.w3.org/2000/svg" id="Shapes" viewBox="0 0 32 32"><title>HPC-blue-multi</title><g><path fill="#0078d4" d="M5.556,27.6V32H26.444V27.6Z"/><path fill="#50e6ff" d="M23.71,29.279v1.108h1.108V29.279Z"/><path fill="#50e6ff" d="M21.508,29.279v1.108h1.108V29.279Z"/></g><g><path fill="#0078d4" d="M5.556,22.1v4.4H26.444V22.1Z"/><path fill="#50e6ff" d="M23.71,23.752V24.86h1.108V23.752Z"/><path fill="#fef000" d="M21.508,23.752V24.86h1.108V23.752Z"/></g><g><path fill="#0078d4" d="M5.556,16.6V21H26.444V16.6Z"/><path fill="#9bf00b" d="M23.71,18.241v1.107h1.108V18.241Z"/><path fill="#50e6ff" d="M21.508,18.241v1.107h1.108V18.241Z"/></g><g><path fill="#0078d4" d="M5.556,11.1v4.4H26.444V11.1Z"/><path fill="#50e6ff" d="M23.71,12.762V13.87h1.108V12.762Z"/><path fill="#50e6ff" d="M21.508,12.762V13.87h1.108V12.762Z"/></g><g><path fill="#0078d4" d="M5.556,5.5V9.9H26.444V5.5Z"/><path fill="#50e6ff" d="M23.71,7.144V8.251h1.108V7.144Z"/><path fill="#ffb900" d="M21.508,7.144V8.251h1.108V7.144Z"/></g><g><path fill="#0078d4" d="M5.556,0V4.4H26.444V0Z"/><path fill="#50e6ff" d="M23.71,1.665V2.773h1.108V1.665Z"/><path fill="#50e6ff" d="M21.508,1.665V2.773h1.108V1.665Z"/></g></svg>